<?xml version="1.0" encoding="UTF-8" standalone="no"?>
<svg
   width="64"
   version="1.1"
   height="64"
   id="svg15"
   sodipodi:docname="folder-projects.svg"
   inkscape:version="1.4.2 (unknown)"
   xmlns:inkscape="http://www.inkscape.org/namespaces/inkscape"
   xmlns:sodipodi="http://sodipodi.sourceforge.net/DTD/sodipodi-0.dtd"
   xmlns:xlink="http://www.w3.org/1999/xlink"
   xmlns="http://www.w3.org/2000/svg"
   xmlns:svg="http://www.w3.org/2000/svg"
   xmlns:rdf="http://www.w3.org/1999/02/22-rdf-syntax-ns#"
   xmlns:cc="http://creativecommons.org/ns#"
   xmlns:dc="http://purl.org/dc/elements/1.1/">
  <sodipodi:namedview
     pagecolor="#ffffff"
     bordercolor="#666666"
     borderopacity="1"
     objecttolerance="10"
     gridtolerance="10"
     guidetolerance="10"
     inkscape:pageopacity="0"
     inkscape:pageshadow="2"
     inkscape:window-width="1920"
     inkscape:window-height="1007"
     id="namedview17"
     showgrid="false"
     inkscape:zoom="9.8125"
     inkscape:cx="32"
     inkscape:cy="32"
     inkscape:window-x="0"
     inkscape:window-y="0"
     inkscape:window-maximized="1"
     inkscape:current-layer="layer1"
     inkscape:document-rotation="0"
     inkscape:pagecheckerboard="0"
     inkscape:showpageshadow="2"
     inkscape:deskcolor="#d1d1d1">
    <inkscape:grid
       type="xygrid"
       id="grid838"
       originx="0"
       originy="0"
       spacingy="1"
       spacingx="1"
       units="px"
       visible="false" />
  </sodipodi:namedview>
  <defs
     id="defs5455">
    <linearGradient
       inkscape:collect="always"
       id="linearGradient844">
      <stop
         style="stop-color:#008080;stop-opacity:1"
         offset="0"
         id="stop840" />
      <stop
         style="stop-color:#00e5e5;stop-opacity:1"
         offset="1"
         id="stop842" />
    </linearGradient>
    <linearGradient
       inkscape:collect="always"
       xlink:href="#linearGradient844"
       id="linearGradient838"
       x1="6"
       y1="50.000134"
       x2="94.005508"
       y2="50.000134"
       gradientUnits="userSpaceOnUse"
       gradientTransform="matrix(0.9780981,0,0,1,64.250683,974.47294)" />
    <linearGradient
       inkscape:collect="always"
       xlink:href="#linearGradient844"
       id="linearGradient2"
       x1="408.62143"
       y1="520.79797"
       x2="425.87146"
       y2="520.79797"
       gradientUnits="userSpaceOnUse" />
  </defs>
  <metadata
     id="metadata5458">
    <rdf:RDF>
      <cc:Work
         rdf:about="">
        <dc:format>image/svg+xml</dc:format>
        <dc:type
           rdf:resource="http://purl.org/dc/dcmitype/StillImage" />
      </cc:Work>
    </rdf:RDF>
  </metadata>
  <g
     inkscape:label="Capa 1"
     inkscape:groupmode="layer"
     id="layer1"
     transform="translate(-384.57143,-483.798)">
    <g
       transform="matrix(0.7435117,0,0,0.74285165,332.43693,-245.2334)"
       id="g4">
      <path
         style="color:#000000;font-style:normal;font-variant:normal;font-weight:normal;font-stretch:normal;font-size:medium;line-height:normal;font-family:Sans;-inkscape-font-specification:Sans;text-indent:0;text-align:start;text-decoration:none;text-decoration-line:none;letter-spacing:normal;word-spacing:normal;text-transform:none;writing-mode:lr-tb;direction:ltr;baseline-shift:baseline;text-anchor:start;display:inline;overflow:visible;visibility:visible;opacity:1;fill:url(#linearGradient838);fill-opacity:1;fill-rule:nonzero;stroke:none;stroke-width:3.95596;marker:none;enable-background:accumulate"
         d="m 77.516136,989.47294 c -3.988712,0 -7.396866,2.85993 -7.396866,6.65625 v 56.01651 c 0,2.3649 0.836461,3.8844 2.460429,5.2631 1.623967,1.3787 3.30936,2.0641 5.459931,2.0641 h 68.3709 c 1.64145,0.029 1.59477,-2.2249 3.9e-4,-2.2488 l -68.465873,-0.04 c -2.115981,0 -3.874159,-1.4929 -3.874159,-1.4929 0,0 -1.620163,-1.2165 -1.620163,-3.5457 v -56.01651 c 0,-2.61614 1.77916,-4.29462 4.886948,-4.26047 l 24.066557,-0.0121 11.47627,10.23088 c 0.34679,0.3129 0.79077,0.759 1.25317,0.769 l 33.37023,-0.012 c 1.7015,-0.01 1.64773,-2.3444 -0.0538,-2.3717 h -32.61346 l -12.1651,-10.53119 c -0.35109,-0.30157 -0.79464,-0.46748 -1.25318,-0.46875 z m 38.818274,2.90625 c -1.55276,-0.004 -1.55586,2.67092 0.0388,2.69371 l 29.7626,-0.0408 c 3.0158,-0.004 4.32232,0.97316 5.32647,1.90993 1.00416,0.93677 2.53008,3.23017 2.53008,5.59337 v 54.9375 c 0.009,1.8591 2.19838,1.9203 2.20491,0.064 l -0.006,-55.0018 c -3.1e-4,-3.21041 -1.04994,-5.89832 -2.9343,-7.65623 -1.88434,-1.75791 -4.44981,-2.5 -7.12177,-2.5 h -29.61804 c -0.0611,-0.003 -0.12228,-0.003 -0.18339,0 z"
         id="path2-3"
         sodipodi:nodetypes="sssssccscsssccccccccsccsssccssscc" />
    </g>
    <path
       d="m 425.62265,523.32953 c -0.1684,-0.51301 -0.4248,-0.99431 -0.77097,-1.44381 -0.34594,-0.44903 -0.77597,-0.84783 -1.28992,-1.19632 -0.51453,-0.34813 -1.11709,-0.62302 -1.80874,-0.82497 -0.27779,-0.0729 -0.76491,-0.18791 -1.40715,-0.34382 -0.45936,-0.11146 -0.8895,-0.22503 -1.3746,-0.34106 v -5.66374 c 0.48539,0.12807 0.82211,0.33224 1.18189,0.55877 0.76976,0.48425 1.25234,1.31277 1.39372,2.43772 h 3.72901 c -0.0408,-0.96427 -0.25083,-1.75497 -0.64661,-2.46534 -0.43463,-0.77911 -1.023,-1.44771 -1.76439,-1.97978 -0.74119,-0.53154 -1.62933,-0.93697 -2.60781,-1.20294 -0.42447,-0.11562 -0.80056,-0.21242 -1.28566,-0.27769 V 508.798 h -3.45003 v 1.77681 c -0.37778,0.0564 -0.81664,0.13066 -1.20887,0.22769 -0.92953,0.22937 -1.74597,0.58214 -2.47704,1.05875 -0.73162,0.47703 -1.31275,1.07743 -1.75766,1.80146 -0.44473,0.72442 -0.66347,1.5814 -0.66347,2.57143 0,0.51349 0.076,1.01749 0.22379,1.51257 0.14849,0.49501 0.40088,0.96253 0.75701,1.40258 0.35596,0.44007 0.83529,0.8388 1.43859,1.19634 0.60285,0.35743 1.3318,0.64624 2.24119,0.86626 0.5003,0.12531 1.01505,0.24294 1.44632,0.35232 v 6.4064 c -0.59284,-0.1564 -1.17984,-0.39639 -1.65367,-0.72215 -0.49451,-0.33889 -0.86607,-0.74744 -1.14272,-1.27944 -0.25763,-0.49442 -0.38133,-1.09963 -0.39904,-1.74244 h -3.70439 c 0.0434,1.12496 0.28306,2.11571 0.73711,2.96625 0.47408,0.88952 1.10686,1.60499 1.8976,2.17298 0.7905,0.56851 1.69234,0.98335 2.75996,1.25842 0.47882,0.12327 1.02016,0.21217 1.50542,0.28025 v 1.89352 h 3.44996 v -1.85032 c 0.53919,-0.0574 1.02187,-0.14416 1.5378,-0.26139 1.00813,-0.22894 1.92145,-0.59124 2.71239,-1.08622 0.79028,-0.49504 1.43499,-1.13183 1.91966,-1.91146 0.48418,-0.77899 0.73012,-1.71883 0.73012,-2.81885 7e-5,-0.51314 -0.0807,-1.0267 -0.249,-1.54014 z m -10.10135,-5.01197 c -0.64679,-0.20051 -1.28902,-0.48684 -1.72776,-0.8597 -0.46441,-0.39401 -0.68309,-0.93934 -0.68309,-1.63637 0,-0.49499 0.13014,-0.90746 0.37809,-1.23761 0.24715,-0.32998 0.53417,-0.59126 0.90989,-0.78373 0.33308,-0.17088 0.74614,-0.2981 1.12343,-0.38241 z m 6.40953,8.0235 c -0.15894,0.35752 -0.41541,0.67371 -0.77101,0.94881 -0.35587,0.27498 -0.84873,0.49971 -1.42186,0.67374 -0.24221,0.0741 -0.44294,0.13075 -0.76669,0.17331 v -5.73796 c 0.53915,0.1407 0.97995,0.2856 1.41901,0.4356 0.43418,0.14689 0.84899,0.39868 1.21497,0.75616 0.36602,0.35763 0.55548,0.91231 0.55548,1.66396 2e-5,0.36691 -0.0719,0.7288 -0.23052,1.08637 z"
       id="path25907-1-5-7"
       style="fill:url(#linearGradient2);fill-opacity:1;stroke-width:0.0358244" />
  </g>
</svg>
