<?xml version="1.0" encoding="UTF-8" standalone="no"?>
<svg
   width="64"
   version="1.1"
   height="64"
   id="svg15"
   sodipodi:docname="folder-gimp.svg"
   inkscape:version="1.4.2 (unknown)"
   xmlns:inkscape="http://www.inkscape.org/namespaces/inkscape"
   xmlns:sodipodi="http://sodipodi.sourceforge.net/DTD/sodipodi-0.dtd"
   xmlns:xlink="http://www.w3.org/1999/xlink"
   xmlns="http://www.w3.org/2000/svg"
   xmlns:svg="http://www.w3.org/2000/svg"
   xmlns:rdf="http://www.w3.org/1999/02/22-rdf-syntax-ns#"
   xmlns:cc="http://creativecommons.org/ns#"
   xmlns:dc="http://purl.org/dc/elements/1.1/">
  <sodipodi:namedview
     pagecolor="#ffffff"
     bordercolor="#666666"
     borderopacity="1"
     objecttolerance="10"
     gridtolerance="10"
     guidetolerance="10"
     inkscape:pageopacity="0"
     inkscape:pageshadow="2"
     inkscape:window-width="1920"
     inkscape:window-height="1011"
     id="namedview17"
     showgrid="false"
     inkscape:zoom="9.8125"
     inkscape:cx="29.808917"
     inkscape:cy="32"
     inkscape:window-x="0"
     inkscape:window-y="0"
     inkscape:window-maximized="1"
     inkscape:current-layer="layer1"
     inkscape:document-rotation="0"
     inkscape:pagecheckerboard="0"
     inkscape:showpageshadow="2"
     inkscape:deskcolor="#d1d1d1">
    <inkscape:grid
       type="xygrid"
       id="grid850"
       originx="0"
       originy="0"
       spacingy="1"
       spacingx="1"
       units="px"
       visible="false" />
  </sodipodi:namedview>
  <defs
     id="defs5455">
    <linearGradient
       inkscape:collect="always"
       xlink:href="#linearGradient836"
       id="linearGradient838"
       x1="6"
       y1="50.000134"
       x2="94.005508"
       y2="50.000134"
       gradientUnits="userSpaceOnUse"
       gradientTransform="matrix(0.9780981,0,0,1,64.171715,974.03282)" />
    <linearGradient
       inkscape:collect="always"
       id="linearGradient836">
      <stop
         style="stop-color:#ffb380;stop-opacity:1"
         offset="0"
         id="stop832" />
      <stop
         style="stop-color:#20ffff;stop-opacity:1"
         offset="0.48615947"
         id="stop1390" />
      <stop
         style="stop-color:#ffaeff;stop-opacity:1"
         offset="1"
         id="stop834" />
    </linearGradient>
    <linearGradient
       inkscape:collect="always"
       xlink:href="#linearGradient836"
       id="linearGradient2"
       x1="404.27142"
       y1="520.79797"
       x2="429.26984"
       y2="520.79797"
       gradientUnits="userSpaceOnUse" />
  </defs>
  <metadata
     id="metadata5458">
    <rdf:RDF>
      <cc:Work
         rdf:about="">
        <dc:format>image/svg+xml</dc:format>
        <dc:type
           rdf:resource="http://purl.org/dc/dcmitype/StillImage" />
      </cc:Work>
    </rdf:RDF>
  </metadata>
  <g
     inkscape:label="Capa 1"
     inkscape:groupmode="layer"
     id="layer1"
     transform="translate(-384.57143,-483.798)">
    <g
       transform="matrix(0.74351172,0,0,0.74285356,332.49565,-244.90835)"
       id="g4">
      <path
         style="color:#000000;font-style:normal;font-variant:normal;font-weight:normal;font-stretch:normal;font-size:medium;line-height:normal;font-family:Sans;-inkscape-font-specification:Sans;text-indent:0;text-align:start;text-decoration:none;text-decoration-line:none;letter-spacing:normal;word-spacing:normal;text-transform:none;writing-mode:lr-tb;direction:ltr;baseline-shift:baseline;text-anchor:start;display:inline;overflow:visible;visibility:visible;opacity:1;fill:url(#linearGradient838);fill-opacity:1;fill-rule:nonzero;stroke:none;stroke-width:3.95596;marker:none;enable-background:accumulate"
         d="m 77.437168,989.03282 c -3.988712,0 -7.396866,2.85993 -7.396866,6.65625 v 56.01633 c 0,2.3649 0.836461,3.8844 2.460429,5.2631 1.623967,1.3787 3.30936,2.0641 5.459931,2.0641 h 68.370898 c 1.64145,0.029 1.59477,-2.2249 3.9e-4,-2.2488 l -68.465871,-0.04 c -2.115981,0 -3.874159,-1.4929 -3.874159,-1.4929 0,0 -1.620163,-1.2165 -1.620163,-3.5457 v -56.01633 c 0,-2.61614 1.77916,-4.29462 4.886948,-4.26047 l 24.066555,-0.0121 11.47627,10.2307 c 0.34679,0.3129 0.79077,0.759 1.25317,0.769 l 33.37023,-0.012 c 1.7015,-0.01 1.64773,-2.3444 -0.0538,-2.3717 h -32.61346 l -12.1651,-10.53101 c -0.35109,-0.30157 -0.79464,-0.46748 -1.25318,-0.46875 z m 38.818272,2.90625 c -1.55276,-0.004 -1.55586,2.67092 0.0388,2.69371 l 29.7626,-0.0408 c 3.0158,-0.004 4.32232,0.97316 5.32647,1.90993 1.00416,0.93677 2.53008,3.23008 2.53008,5.59319 v 54.9375 c 0.009,1.8591 2.19838,1.9203 2.20491,0.064 l -0.006,-55.0018 c -3.1e-4,-3.21023 -1.04994,-5.89814 -2.9343,-7.65605 -1.88434,-1.75791 -4.44981,-2.5 -7.12177,-2.5 h -29.61804 c -0.0611,-0.003 -0.12228,-0.003 -0.18339,0 z"
         id="path2-3"
         sodipodi:nodetypes="sssssccscsssccccccccsccsssccssscc" />
    </g>
    <g
       id="g1"
       style="fill:url(#linearGradient2)">
      <path
         d="m 428.25841,510.79157 c -0.1202,-1.06737 -0.2154,-1.91041 -0.80859,-1.98875 -0.53827,-0.0688 -0.87204,0.60163 -1.2967,1.86778 -0.91228,2.72411 -3.5402,4.91694 -6.72346,5.63688 -0.55957,-0.3677 -1.20816,-0.58191 -1.90125,-0.58191 -0.80861,0 -1.55707,0.28883 -2.17251,0.77695 -2.88217,-0.28403 -4.98887,-3.70464 -5.01017,-3.74034 l -0.8654,-1.43293 v 6.6499 c -0.20925,0.3778 -0.35603,0.80038 -0.42514,1.2528 -1.21195,-0.91762 -2.62605,-1.12385 -3.63394,-0.38474 -0.57567,0.42258 -0.953,1.08603 -1.09171,1.91945 -0.20167,1.21233 0.12699,2.60371 0.90186,3.81761 0.91844,1.43934 2.27336,2.27914 3.49334,2.317 v 0 c 0.81664,0.76416 2.18528,1.85066 3.44741,2.49227 2.36899,1.20534 4.57511,1.8038 6.55874,1.80328 2.87931,0 5.12153,-1.14469 6.87651,-3.63964 3.33787,-4.25507 2.98465,-14.08217 2.65101,-16.76567 z m -7.88949,9.19709 c 0,1.76332 -1.27398,3.19732 -2.84051,3.19732 -1.56653,0 -2.8405,-1.434 -2.8405,-3.19732 0,-1.76332 1.27397,-3.19732 2.8405,-3.19732 1.56653,0 2.84051,1.434 2.84051,3.19732 z m -9.95359,0.73325 c -0.1382,-0.21689 -0.28879,-0.41673 -0.44502,-0.60642 -0.01,-0.0976 -0.016,-0.19499 -0.016,-0.29308 0,-1.37752 1.03251,-2.49819 2.30175,-2.49819 0.71201,0 1.3729,0.35916 1.8056,0.95494 -0.20449,0.52383 -0.32,1.10147 -0.32,1.7095 0,0.50252 0.0814,0.98264 0.22391,1.4308 -0.4616,0.78494 -1.078,1.23364 -1.72091,1.23364 -0.40002,0 -0.79438,-0.18059 -1.14992,-0.50998 -0.1604,-0.48654 -0.38823,-0.96613 -0.67889,-1.42121 z m -4.41511,3.24049 c -0.61543,-0.96454 -0.89192,-2.08573 -0.73994,-2.99962 0.0624,-0.37675 0.23103,-0.89472 0.67793,-1.22245 0.26084,-0.19139 0.57047,-0.28137 0.90328,-0.28137 0.93405,0 2.05368,0.70821 2.80499,1.88484 0.61497,0.96398 0.89192,2.08464 0.73997,2.99854 -0.0624,0.37727 -0.23103,0.89524 -0.67793,1.22351 -0.99136,0.72793 -2.6895,-0.006 -3.7083,-1.60345 z m 18.36348,2.81789 c -3.2075,3.3235 -6.40395,3.48777 -11.80191,0.89316 -0.77037,-0.49147 -1.30046,-0.78986 -2.00187,-1.58888 l 0.16719,-0.1876 c 0.3933,-0.59093 0.37768,-0.62925 0.59016,-1.35853 0.054,-0.32451 0.0668,-0.66184 0.0464,-1.00502 0.28547,0.11679 0.57946,0.18539 0.88054,0.18539 0.82471,0 1.59827,-0.45188 2.20614,-1.256 0.68739,1.08069 1.8094,1.7889 3.07815,1.7889 2.08824,0 3.78733,-1.91254 3.78733,-4.26309 0,-1.08709 -0.4627,-2.08121 -0.4627,-2.08121 3.69073,-1.60579 4.51401,-2.70976 5.97701,-4.75348 v 0 0 c 0,0 0.54705,8.4836 -2.43625,13.33446 z"
         id="path2"
         sodipodi:nodetypes="ccccscccccccccccccccsssssccsscscscccsccccccsccccccccccscsscc"
         style="color:#e4e4e4;fill:url(#linearGradient2);fill-opacity:1;stroke-width:0.88525"
         class="ColorScheme-Text" />
      <path
         d="m 405.61654,518.53698 a 1.2902054,1.704316 0 1 0 0,3.40863 1.2902054,1.704316 0 1 0 0,-3.40863 z"
         id="path4"
         style="color:#e4e4e4;fill:url(#linearGradient2);fill-opacity:1;stroke-width:0.22883"
         class="ColorScheme-Text" />
      <path
         d="m 417.01411,518.05003 c -0.0494,0 -0.095,0.012 -0.14319,0.016 0.40642,0.0778 0.71692,0.47525 0.71692,0.95783 0,0.53758 -0.38534,0.9739 -0.86014,0.9739 -0.4748,0 -0.86012,-0.43632 -0.86012,-0.9739 0,-0.26345 0.0934,-0.50204 0.24385,-0.67735 -0.48942,0.34379 -0.81756,0.95198 -0.81756,1.65125 0,1.07565 0.77024,1.94779 1.72026,1.94779 0.95004,0 1.72028,-0.87214 1.72028,-1.94779 0,-1.07567 -0.77024,-1.94779 -1.72028,-1.94779 z"
         id="path6"
         style="color:#e4e4e4;fill:url(#linearGradient2);fill-opacity:1;stroke-width:0.22883"
         class="ColorScheme-Text" />
      <path
         d="m 412.06831,518.05003 c -0.0426,0 -0.083,0.01 -0.12519,0.014 0.35566,0.0682 0.62747,0.41586 0.62747,0.83804 0,0.4704 -0.33719,0.85216 -0.75263,0.85216 -0.41544,0 -0.75262,-0.38176 -0.75262,-0.85216 0,-0.23033 0.0818,-0.43922 0.21333,-0.59262 -0.42836,0.30095 -0.71565,0.83269 -0.71565,1.44478 0,0.94128 0.67393,1.70432 1.50525,1.70432 0.83132,0 1.50523,-0.76304 1.50523,-1.70432 0,-0.94126 -0.67391,-1.7043 -1.50523,-1.7043 z"
         id="path8"
         style="color:#e4e4e4;fill:url(#linearGradient2);fill-opacity:1;stroke-width:0.22883"
         class="ColorScheme-Text" />
      <path
         d="m 428.58307,527.9935 c -0.64369,-0.74309 -1.54605,-0.90184 -2.24626,-0.3954 -0.01,0.006 -0.012,0.012 -0.02,0.018 -0.77306,-0.66197 -1.95961,-1.42648 -3.35373,-2.11649 -0.98397,-0.4869 -0.0538,-0.30982 -0.86454,-0.56109 l -2.50563,1.45983 c 0,0 0.51332,0.47496 2.40088,1.40942 1.32464,0.65543 2.57272,1.11219 3.52444,1.32742 -0.039,0.38322 -0.001,0.79908 0.12079,1.22176 0.4202,1.45598 2.83556,2.20685 3.10968,2.28766 l 0.52026,0.15339 8.6e-4,-0.62427 c 0.001,-0.79224 -0.0444,-3.43588 -0.68725,-4.17897 z"
         id="path10"
         style="color:#e4e4e4;fill:url(#linearGradient2);fill-opacity:1;stroke-width:0.795692"
         sodipodi:nodetypes="cccccccccccccc"
         class="ColorScheme-Text" />
      <path
         d="m 415.18545,525.66922 c 0,0 6.56069,0.47866 6.56069,-1.2125 0,-0.84048 -0.47868,-1.71064 -0.47868,-1.71064 0,0 1.92067,1.15308 1.62955,2.68843 -0.0448,0.23519 -0.1354,0.48012 -0.28471,0.73285 -1.43644,2.42255 -7.42685,-0.49814 -7.42685,-0.49814 z"
         id="path12"
         style="color:#e4e4e4;fill:url(#linearGradient2);fill-opacity:1;stroke-width:0.22883"
         class="ColorScheme-Text" />
    </g>
  </g>
</svg>
