<?xml version="1.0" encoding="UTF-8" standalone="no"?>
<svg
   width="64"
   version="1.1"
   height="64"
   id="svg17"
   sodipodi:docname="folder-steam.svg"
   inkscape:version="1.4.2 (unknown)"
   xmlns:inkscape="http://www.inkscape.org/namespaces/inkscape"
   xmlns:sodipodi="http://sodipodi.sourceforge.net/DTD/sodipodi-0.dtd"
   xmlns:xlink="http://www.w3.org/1999/xlink"
   xmlns="http://www.w3.org/2000/svg"
   xmlns:svg="http://www.w3.org/2000/svg"
   xmlns:rdf="http://www.w3.org/1999/02/22-rdf-syntax-ns#"
   xmlns:cc="http://creativecommons.org/ns#"
   xmlns:dc="http://purl.org/dc/elements/1.1/">
  <sodipodi:namedview
     pagecolor="#ffffff"
     bordercolor="#666666"
     borderopacity="1"
     objecttolerance="10"
     gridtolerance="10"
     guidetolerance="10"
     inkscape:pageopacity="0"
     inkscape:pageshadow="2"
     inkscape:window-width="1920"
     inkscape:window-height="1007"
     id="namedview19"
     showgrid="false"
     inkscape:zoom="9.8125"
     inkscape:cx="27.821656"
     inkscape:cy="24.152866"
     inkscape:window-x="0"
     inkscape:window-y="0"
     inkscape:window-maximized="1"
     inkscape:current-layer="layer1"
     inkscape:document-rotation="0"
     inkscape:pagecheckerboard="0"
     inkscape:showpageshadow="2"
     inkscape:deskcolor="#d1d1d1">
    <inkscape:grid
       type="xygrid"
       id="grid1042"
       originx="0"
       originy="0"
       spacingy="1"
       spacingx="1"
       units="px"
       visible="false" />
  </sodipodi:namedview>
  <defs
     id="defs5455">
    <linearGradient
       id="linearGradient4"
       inkscape:collect="always">
      <stop
         style="stop-color:#ffd42a;stop-opacity:1"
         offset="0"
         id="stop2" />
      <stop
         style="stop-color:#ffb7ff;stop-opacity:1;"
         offset="0.48888862"
         id="stop3" />
      <stop
         style="stop-color:#944cff;stop-opacity:1;"
         offset="1"
         id="stop4" />
    </linearGradient>
    <linearGradient
       inkscape:collect="always"
       id="linearGradient985">
      <stop
         style="stop-color:#b380ff;stop-opacity:1"
         offset="0"
         id="stop981" />
      <stop
         style="stop-color:#00e5e5;stop-opacity:1"
         offset="1"
         id="stop983" />
    </linearGradient>
    <linearGradient
       inkscape:collect="always"
       xlink:href="#linearGradient4"
       id="linearGradient838"
       x1="6"
       y1="50.000134"
       x2="94.005508"
       y2="50.000134"
       gradientUnits="userSpaceOnUse"
       gradientTransform="matrix(0.9780981,0,0,1,126.99591,990.06777)" />
    <linearGradient
       inkscape:collect="always"
       xlink:href="#linearGradient985"
       id="linearGradient1069"
       x1="0.542"
       y1="12.394"
       x2="24.542532"
       y2="12.394"
       gradientUnits="userSpaceOnUse" />
    <linearGradient
       id="linearGradient24"
       inkscape:collect="always">
      <stop
         style="stop-color:#ffd42a;stop-opacity:1"
         offset="0"
         id="stop22" />
      <stop
         style="stop-color:#ffb7ff;stop-opacity:1;"
         offset="0.48888862"
         id="stop23" />
      <stop
         style="stop-color:#944cff;stop-opacity:1;"
         offset="1"
         id="stop24" />
    </linearGradient>
    <linearGradient
       inkscape:collect="always"
       xlink:href="#linearGradient24"
       id="linearGradient2"
       x1="-11.981475"
       y1="11.160235"
       x2="33.017963"
       y2="11.160235"
       gradientUnits="userSpaceOnUse" />
  </defs>
  <metadata
     id="metadata5458">
    <rdf:RDF>
      <cc:Work
         rdf:about="">
        <dc:format>image/svg+xml</dc:format>
        <dc:type
           rdf:resource="http://purl.org/dc/dcmitype/StillImage" />
      </cc:Work>
    </rdf:RDF>
  </metadata>
  <g
     inkscape:label="Capa 1"
     inkscape:groupmode="layer"
     id="layer1"
     transform="translate(-384.57143,-483.798)">
    <g
       transform="matrix(0.7435117,0,0,0.74285314,285.78512,-256.81962)"
       id="g4">
      <path
         style="color:#000000;font-style:normal;font-variant:normal;font-weight:normal;font-stretch:normal;font-size:medium;line-height:normal;font-family:Sans;-inkscape-font-specification:Sans;text-indent:0;text-align:start;text-decoration:none;text-decoration-line:none;letter-spacing:normal;word-spacing:normal;text-transform:none;writing-mode:lr-tb;direction:ltr;baseline-shift:baseline;text-anchor:start;display:inline;overflow:visible;visibility:visible;opacity:1;fill:url(#linearGradient838);fill-opacity:1;fill-rule:nonzero;stroke:none;stroke-width:3.95596;marker:none;enable-background:accumulate"
         d="m 140.26136,1005.0678 c -3.98871,0 -7.39687,2.8599 -7.39687,6.6562 v 56.0165 c 0,2.3649 0.83647,3.8844 2.46043,5.2631 1.62397,1.3787 3.30936,2.0641 5.45993,2.0641 h 68.3709 c 1.64145,0.029 1.59477,-2.2249 3.9e-4,-2.2488 l -68.46587,-0.04 c -2.11598,0 -3.87416,-1.4929 -3.87416,-1.4929 0,0 -1.62016,-1.2165 -1.62016,-3.5457 v -56.0165 c 0,-2.6161 1.77916,-4.2946 4.88695,-4.2605 l 24.06655,-0.012 11.47627,10.2309 c 0.34679,0.3129 0.79077,0.759 1.25317,0.769 l 33.37023,-0.012 c 1.7015,-0.01 1.64773,-2.3444 -0.0538,-2.3717 h -32.61346 l -12.1651,-10.5312 c -0.35109,-0.3015 -0.79464,-0.4674 -1.25318,-0.4687 z m 38.81827,2.9062 c -1.55276,0 -1.55586,2.6709 0.0388,2.6937 l 29.7626,-0.041 c 3.0158,0 4.32232,0.9732 5.32647,1.91 1.00416,0.9367 2.53008,3.2301 2.53008,5.5933 v 54.9375 c 0.009,1.8591 2.19838,1.9203 2.20491,0.064 l -0.006,-55.0018 c -3.1e-4,-3.2104 -1.04994,-5.8983 -2.9343,-7.6562 -1.88434,-1.7579 -4.44981,-2.5 -7.12177,-2.5 h -29.61804 c -0.0611,0 -0.12228,0 -0.18339,0 z"
         id="path2-3-3"
         sodipodi:nodetypes="sssssccscsssccccccccsccsssccssscc" />
    </g>
    <g
       id="g4-3"
       transform="translate(404.32943,508.404)"
       style="fill-opacity:1.0;fill:url(#linearGradient1069)" />
    <g
       transform="matrix(0.53333999,0,0,0.53333999,410.96163,514.8458)"
       style="color:#dedede;fill:url(#linearGradient2);stroke-width:0.5"
       class="ColorScheme-Text"
       id="g2">
      <path
         style="color:#dedede;fill:url(#linearGradient2)"
         class="ColorScheme-Text"
         d="M 10.518242,-11.339484 A 22.499715,22.499715 0 0 0 -11.981475,11.160232 22.499715,22.499715 0 0 0 10.518242,33.659954 22.499715,22.499715 0 0 0 33.017963,11.160232 22.499715,22.499715 0 0 0 10.518242,-11.339484 Z m -0.263669,2.8124675 a 19.687251,19.687251 0 0 1 0.263669,0 A 19.687251,19.687251 0 0 1 30.205496,11.160232 19.687251,19.687251 0 0 1 10.518242,30.847487 19.687251,19.687251 0 0 1 2.5972164,29.18307 c 0.2947744,-0.396218 0.5654461,-0.819975 0.763528,-1.29638 0.3424737,-0.827256 0.5009842,-1.693972 0.4778938,-2.559789 l 7.8442448,-5.608338 c 0.06349,0.0022 0.12877,0.0061 0.192259,0.0061 4.696251,0 8.514173,-3.828889 8.514173,-8.530768 0,-4.7021596 -3.817639,-8.5251427 -8.514173,-8.5251427 -4.6945673,0 -8.5088317,3.8232644 -8.5088317,8.5251427 0,0.0377 -0.00199,0.07446 0,0.10986 l -5.4820562,7.970338 c -0.8884576,-0.04042 -1.7802896,0.113173 -2.6256896,0.461413 -0.372678,0.151987 -0.721508,0.339326 -1.049187,0.554816 l -1.428201,-0.587828 A 19.687251,19.687251 0 0 1 -9.1688715,11.16055 19.687251,19.687251 0 0 1 10.254571,-8.5267045 Z m 1.62046,14.040384 c 3.128305,0 5.67977,2.5486271 5.67977,5.6797715 0,3.133647 -2.551465,5.685399 -5.67977,5.685399 -3.1263377,0 -5.6688056,-2.551639 -5.6688056,-5.685399 0,-3.1311162 2.5425243,-5.6797715 5.6688056,-5.6797715 z m 0.011,1.400748 c -2.3510801,0 -4.257228,1.9107039 -4.257228,4.2681945 0,2.357608 1.9060916,4.268198 4.257228,4.268198 2.353023,0 4.262573,-1.910537 4.262573,-4.268198 0,-2.3574342 -1.909691,-4.2681945 -4.262573,-4.2681945 z M -2.3245125,20.690692 c 0.5990833,0.0049 1.2036789,0.123691 1.79075272,0.36804 1.1838226,0.492546 2.10597348,1.418552 2.59275488,2.603722 0.4867533,1.185175 0.4815501,2.493533 -0.010995,3.674765 -0.1897513,0.455538 -0.4575316,0.849589 -0.7580437,1.208487 A 19.687251,19.687251 0 0 1 0.04850632,27.831595 c 0.2655078,-0.292015 0.487878,-0.630751 0.6481886,-1.016225 0.75112498,-1.802734 -0.1001435,-3.874735 -1.90060742,-4.625103 l -2.867309,-1.186519 c 0.552763,-0.209726 1.147711,-0.318007 1.7467946,-0.313113 z"
         stroke-width="0.468754"
         id="path1" />
    </g>
  </g>
</svg>
